<?xml version="1.0" standalone="no"?>
<!DOCTYPE svg PUBLIC "-//W3C//DTD SVG 20010904//EN"
 "http://www.w3.org/TR/2001/REC-SVG-20010904/DTD/svg10.dtd">
<svg version="1.0" xmlns="http://www.w3.org/2000/svg"
 width="200.000000pt" height="200.000000pt" viewBox="0 0 200.000000 200.000000"
 preserveAspectRatio="xMidYMid meet">

<g transform="translate(0.000000,200.000000) scale(0.100000,-0.100000)"
fill="#000000" stroke="none">
<path d="M1015 1972 c4 -14 -8 -32 -44 -65 -53 -50 -66 -55 -74 -33 -3 8 -27
24 -53 37 -26 13 -49 32 -52 42 -5 19 -29 17 -24 -3 1 -6 -11 -35 -28 -65 -16
-29 -30 -60 -30 -69 0 -20 3 -20 -76 0 -42 11 -68 23 -75 36 -5 10 -15 16 -20
12 -7 -4 -7 -10 0 -17 15 -15 14 -42 -6 -104 -16 -51 -19 -54 -43 -47 -14 3
-48 6 -77 5 -28 -1 -54 3 -58 9 -3 6 -11 8 -16 4 -6 -3 -6 -10 -1 -17 5 -7 12
-46 14 -88 l5 -76 -55 -18 c-34 -10 -67 -14 -88 -10 -36 6 -48 -9 -15 -18 33
-8 62 -152 31 -152 -8 0 -37 -12 -63 -27 -26 -16 -57 -28 -67 -28 -25 0 -26
-16 -2 -22 9 -3 26 -23 36 -44 11 -22 29 -49 39 -61 20 -22 20 -22 -23 -73
-29 -34 -49 -50 -66 -50 -33 0 -30 -16 4 -24 15 -4 45 -27 66 -52 l39 -44 -20
-23 c-10 -12 -28 -39 -39 -61 -10 -21 -27 -41 -37 -44 -22 -6 -16 -28 6 -24 9
1 38 -11 65 -28 27 -16 57 -30 66 -30 20 0 19 4 0 -80 -12 -53 -20 -69 -36
-73 -12 -4 -17 -10 -13 -17 5 -9 10 -9 18 -1 15 15 44 13 102 -8 l50 -17 -3
-75 c-2 -41 -8 -78 -13 -83 -14 -15 -11 -26 6 -26 8 0 15 5 15 10 0 6 24 10
58 10 31 0 66 1 76 2 27 4 67 -113 49 -141 -11 -18 -8 -31 8 -31 3 0 9 8 12
19 3 13 20 22 58 31 30 6 62 14 72 17 11 3 17 -1 17 -13 0 -9 14 -40 30 -69
17 -30 29 -59 28 -65 -2 -7 3 -15 10 -17 6 -3 12 1 12 9 0 7 17 22 37 33 20
11 49 30 64 42 l27 23 51 -46 c28 -25 50 -53 48 -62 -1 -9 3 -17 8 -17 6 0 9
8 8 17 -2 10 21 37 53 64 47 41 57 46 65 32 5 -9 30 -28 56 -44 27 -15 52 -33
56 -41 11 -18 30 -17 23 2 -3 9 8 37 24 64 17 26 30 58 30 71 0 15 5 20 14 17
7 -3 35 -9 61 -13 31 -4 56 -15 70 -30 25 -27 40 -22 22 7 -9 14 -7 31 9 81
17 51 24 62 40 60 10 -2 43 -3 73 -2 29 0 60 -5 67 -11 18 -14 29 -5 18 13 -5
7 -9 40 -10 73 -1 33 -3 66 -5 74 -6 22 116 59 141 43 11 -7 21 -8 25 -2 3 5
-3 14 -14 19 -12 7 -23 30 -31 63 -6 29 -14 61 -17 71 -3 12 1 17 14 17 11 0
40 13 66 30 26 17 57 30 67 30 11 0 20 5 20 10 0 6 -6 10 -14 10 -8 0 -24 19
-36 43 -12 23 -31 52 -42 64 l-20 22 48 51 c33 35 54 50 66 47 11 -3 18 0 18
10 0 8 -6 13 -13 10 -16 -6 -33 6 -81 60 l-38 43 23 28 c13 15 33 45 44 65 11
20 25 37 32 37 7 0 13 5 13 10 0 6 -9 10 -20 10 -11 0 -39 12 -63 27 -23 15
-50 26 -59 25 -27 -1 -28 9 -11 82 11 51 20 70 34 73 20 6 25 18 10 28 -5 3
-12 1 -16 -5 -9 -14 -41 -12 -102 7 -47 15 -52 19 -46 37 4 12 7 46 8 76 0 30
3 60 8 67 4 6 3 14 -2 17 -5 4 -13 2 -16 -4 -4 -6 -32 -10 -63 -10 -31 0 -66
-1 -76 -2 -32 -5 -73 134 -43 145 9 4 9 7 -1 18 -11 11 -14 10 -18 -8 -5 -18
-20 -25 -74 -37 -85 -20 -80 -20 -80 4 0 11 -14 42 -31 70 -17 27 -28 54 -25
59 4 5 2 12 -4 16 -6 3 -13 -1 -16 -9 -3 -8 -27 -27 -52 -42 -26 -15 -52 -35
-59 -43 -10 -14 -14 -14 -35 4 -70 58 -88 80 -82 97 4 12 0 18 -11 18 -11 0
-15 -6 -10 -18z m-197 -68 c12 -8 22 -22 22 -31 0 -13 -5 -12 -24 6 l-25 23
-15 -33 c-12 -29 -14 -31 -15 -11 -1 25 15 62 27 62 4 0 18 -7 30 -16z m274
-41 c64 -66 86 -105 94 -166 l6 -43 53 52 c52 53 93 71 196 89 l35 6 23 -74
c27 -84 25 -160 -3 -216 -19 -35 -16 -37 23 -17 55 29 123 30 206 5 l77 -24
-7 -43 c-15 -100 -35 -144 -91 -199 l-55 -53 38 0 c61 0 133 -40 187 -104 l48
-56 -37 -46 c-55 -67 -108 -102 -176 -115 l-60 -12 34 -22 c47 -32 85 -94 102
-167 22 -95 24 -92 -57 -117 -101 -29 -133 -28 -232 14 -17 8 -17 7 -1 -25 29
-56 31 -132 5 -216 -13 -41 -29 -74 -36 -74 -31 0 -122 24 -155 41 -20 10 -55
39 -76 63 l-40 46 -6 -45 c-4 -25 -16 -63 -27 -85 -21 -41 -117 -140 -136
-140 -6 0 -38 28 -71 63 -60 62 -93 130 -93 190 0 16 -5 13 -27 -15 -42 -54
-94 -86 -164 -103 -97 -22 -93 -24 -118 58 -25 86 -26 126 -3 192 l17 50 -50
-17 c-67 -23 -111 -22 -192 4 -38 12 -70 23 -72 24 -2 2 4 37 13 78 19 82 54
142 104 180 l33 24 -43 7 c-68 12 -130 49 -182 109 l-48 56 47 54 c54 63 130
106 188 106 l40 0 -45 43 c-25 23 -53 56 -62 74 -22 43 -49 164 -39 174 14 13
144 49 177 49 27 -1 63 -11 117 -34 15 -6 14 -1 -2 46 -24 70 -24 108 3 196
l21 74 36 -7 c106 -18 146 -36 199 -91 37 -38 52 -48 52 -36 0 10 7 43 16 72
12 42 29 67 79 117 35 35 67 63 72 63 5 0 34 -26 65 -57z m188 38 c5 -11 10
-30 10 -43 -1 -19 -3 -18 -16 11 l-14 34 -25 -23 c-20 -19 -25 -20 -25 -7 0
15 35 47 52 47 4 0 12 -9 18 -19z m-399 -77 c-15 -34 -25 -25 -16 16 5 23 10
29 18 21 7 -7 7 -18 -2 -37z m307 -7 l-3 -22 -13 22 c-6 12 -9 29 -5 38 5 16
7 16 15 1 5 -9 8 -27 6 -39z m-348 -33 c0 -42 -14 -44 -35 -4 -27 53 -14 99
17 60 10 -12 18 -37 18 -56z m420 43 c0 -34 -23 -77 -42 -77 -7 0 -9 15 -5 40
9 67 47 97 47 37z m-498 -19 c12 -14 15 -24 8 -26 -14 -5 -40 17 -40 34 0 20
10 17 32 -8z m544 -16 c-23 -23 -33 -6 -10 19 12 13 20 16 22 9 3 -7 -3 -19
-12 -28z m-872 -118 c27 -11 17 -21 -15 -16 -30 4 -31 3 -27 -27 2 -17 1 -31
-3 -31 -10 0 -19 27 -19 56 0 19 5 24 24 24 13 0 31 -3 40 -6z m64 -35 c2 -36
-9 -26 -23 20 -5 17 -4 22 6 19 8 -3 15 -20 17 -39z m1076 14 c-10 -42 -24
-51 -24 -16 0 26 6 36 28 42 1 1 -1 -11 -4 -26z m106 -7 c0 -19 -5 -38 -11
-42 -8 -5 -10 3 -7 25 5 32 4 33 -28 29 -26 -3 -31 -1 -22 9 6 7 23 13 39 13
26 0 29 -3 29 -34z m-1214 -40 c35 -35 43 -56 22 -56 -25 1 -78 58 -78 84 0
15 25 3 56 -28z m1165 1 c-11 -28 -53 -61 -71 -55 -15 5 27 67 53 77 28 11 30
9 18 -22z m-1213 -43 c15 -6 15 -7 -3 -14 -20 -7 -45 4 -45 21 0 8 7 7 48 -7z
m1253 -8 c-6 -8 -21 -12 -32 -9 -23 6 -15 19 16 25 26 6 30 2 16 -16z m-1417
-252 c16 -16 21 -34 9 -34 -10 0 -43 32 -43 42 0 13 17 9 34 -8z m1558 -16
c-23 -23 -36 -21 -26 5 5 15 33 28 43 20 3 -2 -5 -13 -17 -25z m-1602 -3 c0
-3 -14 -11 -31 -18 l-31 -12 22 -28 c12 -15 17 -27 11 -27 -5 0 -19 12 -31 27
l-21 28 21 17 c20 16 60 25 60 13z m1685 -7 c14 -6 25 -14 25 -18 0 -12 -41
-60 -51 -60 -6 0 -1 12 11 27 l22 28 -31 12 c-17 7 -31 15 -31 18 0 9 28 5 55
-7z m-1620 -40 c14 -6 25 -15 25 -19 0 -10 -40 -23 -47 -15 -4 3 1 6 10 6 10
0 17 4 17 9 0 10 -24 21 -47 21 -13 0 -13 -3 -3 -15 7 -8 9 -15 4 -15 -12 1
-44 25 -44 34 0 10 57 7 85 -6z m1585 2 c0 -5 -9 -14 -19 -20 -24 -12 -41 -13
-21 0 21 13 5 24 -25 16 -28 -7 -34 -26 -8 -26 9 0 14 -3 10 -6 -7 -8 -47 5
-47 15 0 13 43 30 78 30 17 1 32 -3 32 -9z m-1615 -60 c8 -12 -40 -24 -57 -14
-9 6 -6 10 12 15 36 10 38 10 45 -1z m1613 0 c12 0 13 -3 5 -11 -14 -14 -67
-3 -57 12 3 6 13 8 21 5 8 -3 22 -6 31 -6z m-1618 -315 c10 -12 10 -15 -1 -15
-28 0 -59 13 -53 21 8 14 40 10 54 -6z m1624 6 c6 -8 -25 -21 -53 -21 -11 0
-11 3 -1 15 14 16 46 20 54 6z m-1694 -63 l-21 -23 33 -14 c19 -8 27 -16 20
-18 -16 -6 -72 16 -72 29 0 13 50 61 57 55 3 -3 -5 -16 -17 -29z m1729 6 c12
-15 21 -30 21 -34 0 -11 -57 -33 -72 -27 -7 2 2 10 20 18 l34 14 -22 28 c-12
15 -17 27 -11 27 5 0 19 -12 30 -26z m-1599 5 c0 -17 -66 -40 -91 -31 l-22 9
24 16 c26 19 89 23 89 6z m1541 -8 l23 -18 -22 -7 c-23 -8 -92 19 -92 35 0 17
68 9 91 -10z m-1571 -50 c0 -12 -29 -41 -41 -41 -13 0 -11 7 8 30 19 21 33 26
33 11z m1542 -8 c19 -17 24 -33 9 -33 -12 0 -41 29 -41 41 0 14 11 11 32 -8z
m-1401 -279 c-34 -15 -48 -13 -36 5 3 6 21 11 38 10 l32 -1 -34 -14z m89 10
c0 -17 -37 -64 -58 -74 -30 -13 -37 -8 -23 18 18 34 81 77 81 56z m1089 -8
c22 -12 51 -52 51 -71 0 -24 -75 35 -83 65 -6 24 -4 24 32 6z m89 -5 c3 -10
-2 -11 -19 -6 -39 12 -48 27 -15 23 16 -2 31 -9 34 -17z m-1286 -62 c-4 -30
-3 -31 27 -27 17 2 31 1 31 -3 0 -10 -27 -19 -56 -19 -19 0 -24 5 -24 24 0 29
9 56 19 56 4 0 5 -14 3 -31z m1282 15 c3 -9 6 -27 6 -40 0 -19 -5 -24 -24 -24
-13 0 -31 3 -40 6 -28 11 -17 20 19 16 34 -4 34 -4 25 27 -9 31 3 44 14 15z
m-1183 -57 c-17 -17 -22 -2 -9 29 11 28 12 29 16 5 2 -13 -1 -28 -7 -34z
m1084 14 c5 -17 4 -22 -6 -19 -8 3 -15 18 -17 34 -4 33 11 24 23 -15z m-735
-124 c0 -35 -26 -81 -41 -72 -14 9 -11 42 6 75 20 39 35 38 35 -3z m404 11
c19 -27 22 -92 4 -86 -18 6 -38 48 -38 81 0 33 13 35 34 5z m-476 -30 c-16
-24 -38 -35 -38 -20 0 14 29 42 42 42 6 0 4 -9 -4 -22z m533 12 c10 -6 19 -21
19 -33 0 -21 -1 -21 -25 7 -34 39 -32 46 6 26z m-411 -56 c0 -23 -18 -24 -24
-1 -11 41 -7 54 9 33 8 -11 15 -25 15 -32z m295 -2 c-6 -23 -8 -24 -16 -10 -7
12 -5 24 3 38 16 24 23 9 13 -28z m-376 -42 c11 5 22 15 24 22 3 8 6 6 6 -4 1
-10 -11 -25 -25 -35 -25 -16 -27 -16 -40 2 -8 10 -14 30 -13 44 1 25 1 25 15
-7 12 -28 17 -31 33 -22z m481 27 c0 -13 -6 -32 -14 -42 -13 -18 -15 -18 -40
-2 -14 10 -26 25 -26 34 0 13 5 12 25 -7 l25 -24 12 32 c15 38 18 40 18 9z"/>
<path d="M976 1829 c-46 -54 -73 -110 -88 -181 l-12 -57 -67 63 c-54 51 -80
68 -134 86 -77 26 -78 25 -95 -53 -16 -76 -14 -94 26 -234 l6 -22 -53 21 c-62
24 -162 28 -227 9 -42 -12 -43 -13 -37 -44 13 -66 65 -156 117 -201 l50 -44
-53 -11 c-76 -16 -147 -53 -194 -101 l-39 -40 39 -41 c48 -49 118 -86 190
-101 l55 -11 -55 -53 c-55 -52 -96 -124 -110 -191 -6 -29 -4 -32 32 -44 52
-18 178 -16 232 5 24 9 46 15 48 13 2 -2 -4 -24 -13 -48 -21 -55 -23 -180 -5
-233 12 -35 15 -38 44 -32 65 13 138 56 192 113 44 46 55 53 55 36 0 -11 9
-50 20 -86 20 -65 85 -162 116 -174 40 -15 138 134 150 228 l7 49 67 -64 c67
-63 160 -111 199 -104 19 4 39 73 40 140 1 25 -8 75 -19 109 -10 35 -18 65
-16 67 2 2 26 -4 53 -14 58 -21 173 -24 227 -5 36 12 38 15 32 45 -12 63 -66
155 -117 199 l-50 44 55 11 c30 6 77 22 103 36 47 23 123 89 123 105 0 14 -86
89 -127 109 -21 11 -64 25 -96 32 l-57 11 53 49 c55 50 100 127 112 192 7 36
7 37 -37 49 -65 19 -164 15 -227 -9 -47 -19 -52 -19 -48 -4 24 75 37 133 37
165 0 41 -18 127 -30 140 -3 4 -37 -2 -75 -14 -57 -17 -78 -31 -133 -85 -37
-35 -67 -64 -68 -64 -1 0 -4 21 -8 48 -3 26 -17 70 -30 98 -26 57 -91 134
-111 134 -8 0 -29 -19 -49 -41z m6 -66 c-31 -61 -35 -95 -16 -142 22 -56 13
-61 -21 -10 -24 38 -26 46 -16 78 11 37 62 123 69 117 2 -2 -5 -21 -16 -43z
m129 -41 c25 -57 24 -68 -8 -115 -31 -44 -43 -35 -18 14 20 38 15 90 -16 152
l-20 42 21 -25 c12 -14 30 -44 41 -68z m-45 -9 c13 -41 12 -50 -6 -89 -21 -49
-36 -52 -62 -14 -24 34 -22 90 4 144 21 44 22 45 36 25 8 -12 21 -41 28 -66z
m-293 -61 c22 -21 27 -34 27 -73 0 -26 -4 -51 -10 -54 -6 -4 -10 8 -10 30 0
51 -23 89 -75 125 -25 17 -45 33 -45 36 0 9 86 -39 113 -64z m617 64 c0 -3
-20 -19 -44 -37 -49 -35 -76 -80 -76 -129 0 -18 -4 -29 -10 -25 -5 3 -10 28
-10 54 0 54 14 72 90 115 48 28 50 28 50 22z m-680 -74 c45 -43 50 -53 50 -91
0 -23 -4 -40 -9 -37 -5 4 -11 2 -13 -4 -6 -19 -69 30 -84 65 -16 39 -19 115
-4 115 6 0 33 -22 60 -48z m700 4 c0 -25 -4 -56 -9 -69 -12 -32 -83 -87 -89
-69 -2 6 -8 9 -14 6 -8 -5 -9 9 -5 42 4 43 11 55 52 92 26 23 51 42 56 42 5 0
9 -20 9 -44z m-740 -128 c24 -21 41 -41 38 -43 -3 -3 -25 5 -49 18 -48 25 -56
43 -58 128 -2 70 13 69 20 -2 6 -59 9 -66 49 -101z m773 31 c-7 -24 -20 -39
-51 -55 -23 -12 -44 -18 -48 -13 -3 5 6 14 21 21 31 14 65 66 65 99 0 13 4 35
8 49 11 38 15 -59 5 -101z m-503 30 c0 -5 -7 -9 -15 -9 -9 0 -15 9 -15 21 0
18 2 19 15 9 8 -7 15 -16 15 -21z m210 -1 c0 -5 -9 -8 -20 -8 -23 0 -26 10 -8
28 9 9 14 9 20 -1 4 -6 8 -15 8 -19z m-305 -28 c-3 -6 -10 -10 -16 -10 -10 0
-12 33 -2 44 9 9 26 -22 18 -34z m385 15 c0 -18 -4 -23 -15 -19 -17 7 -17 7
-9 28 9 24 24 19 24 -9z m4 -60 c140 -68 201 -130 274 -274 l37 -75 0 -135 c0
-132 -1 -138 -32 -204 -71 -149 -146 -224 -298 -294 -56 -26 -69 -28 -191 -28
l-130 0 -75 37 c-145 74 -205 133 -276 278 l-38 75 0 135 0 135 48 91 c59 114
100 161 181 212 125 80 177 93 330 86 88 -4 108 -8 170 -39z m-570 -38 c18
-13 18 -14 1 -21 -11 -4 -22 -1 -27 6 -18 29 -4 37 26 15z m750 -11 c-7 -18
-25 -17 -31 1 -2 6 4 13 14 15 23 5 25 4 17 -16z m-892 -21 c19 -7 60 -93 49
-100 -5 -3 -18 11 -30 31 -25 42 -71 64 -138 65 -40 1 -44 2 -23 10 25 8 115
4 142 -6z m1148 5 c21 -7 18 -8 -20 -9 -64 -2 -125 -32 -146 -73 -9 -18 -19
-28 -21 -22 -5 14 22 78 39 91 24 20 104 27 148 13z m-1067 -57 c-6 -14 -8
-14 -20 3 -19 26 -16 36 7 24 12 -6 17 -16 13 -27z m870 9 c-6 -25 -18 -29
-27 -7 -3 8 2 19 12 24 21 12 23 10 15 -17z m-990 -3 c27 -12 75 -79 56 -79
-6 0 -7 -4 -4 -10 9 -15 -62 -12 -94 4 -26 14 -81 82 -81 100 0 12 89 1 123
-15z m1207 13 c0 -16 -59 -91 -79 -101 -27 -15 -79 -14 -95 2 -13 12 -9 22 30
75 15 21 144 41 144 24z m-1289 -94 c31 -32 43 -38 78 -38 22 0 41 -4 41 -9 0
-11 -73 -23 -94 -15 -21 8 -64 67 -82 112 -14 36 -14 36 3 12 10 -14 34 -42
54 -62z m1294 23 c-43 -79 -64 -94 -119 -86 -56 9 -61 25 -6 25 44 0 99 40
126 92 9 17 18 27 21 25 3 -3 -7 -28 -22 -56z m-1192 -126 c-7 -19 -17 -19
-32 -1 -10 11 -8 15 6 18 25 6 33 0 26 -17z m1077 0 c-12 -15 -30 -12 -30 6 0
5 10 9 21 9 18 0 19 -2 9 -15z m-1100 -81 c0 -9 -7 -14 -17 -12 -25 5 -28 28
-4 28 12 0 21 -6 21 -16z m1128 4 c-7 -19 -38 -22 -38 -4 0 10 9 16 21 16 12
0 19 -5 17 -12z m-1176 -24 c21 -15 38 -31 38 -35 0 -13 -12 -10 -34 6 -30 23
-91 18 -149 -11 -34 -18 -47 -21 -38 -11 11 15 125 77 140 77 3 0 22 -12 43
-26z m1304 -5 c23 -11 50 -29 60 -40 16 -18 13 -18 -33 5 -57 29 -119 34 -149
11 -22 -16 -34 -19 -34 -7 0 5 17 21 37 35 40 29 50 28 119 -4z m-1311 -45
c47 -22 51 -48 8 -68 -18 -9 -44 -16 -58 -16 -29 0 -115 36 -115 48 0 11 88
51 113 52 11 0 34 -7 52 -16z m1325 -10 l55 -26 -50 -24 c-58 -28 -94 -30
-135 -9 -40 20 -38 48 3 69 44 21 63 20 127 -10z m-1377 -94 c21 0 51 7 67 15
43 22 37 3 -8 -29 -37 -25 -39 -26 -83 -11 -24 8 -57 26 -74 40 l-30 25 45
-20 c25 -11 62 -20 83 -20z m1402 15 c-16 -14 -49 -32 -73 -41 -42 -17 -42
-16 -82 11 -22 15 -40 32 -40 36 0 13 12 10 34 -6 27 -21 93 -18 141 4 53 26
56 25 20 -4z m-1295 -50 c0 -8 -9 -15 -20 -15 -22 0 -27 15 -7 23 21 9 27 7
27 -8z m1130 0 c11 -13 8 -15 -14 -15 -16 0 -26 5 -26 15 0 8 6 15 14 15 7 0
19 -7 26 -15z m-1110 -91 c0 -16 -2 -16 -24 -8 -13 5 -14 9 -5 20 13 16 29 9
29 -12z m1075 -7 c-20 -11 -29 -3 -21 19 5 13 9 14 22 3 14 -11 14 -13 -1 -22z
m-1077 -27 c12 0 22 -4 22 -10 0 -5 -18 -10 -39 -10 -42 0 -79 -28 -129 -95
l-22 -30 12 30 c14 36 54 95 77 113 9 7 25 11 36 8 11 -3 30 -6 43 -6z m1126
4 c21 -8 64 -67 82 -112 14 -36 14 -36 -3 -12 -10 14 -34 42 -54 63 -31 31
-43 37 -78 37 -49 0 -55 17 -8 23 17 2 35 5 39 5 3 1 13 -1 22 -4z m-1088 -53
c-4 -5 -2 -11 4 -13 18 -6 -38 -76 -71 -87 -32 -11 -109 -15 -109 -6 0 16 57
88 79 100 29 16 105 20 97 6z m1073 -5 c25 -13 81 -82 81 -99 0 -12 -79 -8
-114 7 -39 16 -78 75 -62 93 15 17 62 16 95 -1z m-1054 -86 c-14 -31 -26 -42
-54 -50 -46 -13 -102 -13 -121 0 -11 7 -4 10 28 10 58 0 104 21 132 59 29 42
38 32 15 -19z m957 20 c21 -36 71 -60 128 -60 25 0 39 -4 35 -10 -8 -13 -80
-13 -127 0 -26 7 -39 18 -46 38 -6 15 -13 35 -17 45 -12 29 9 19 27 -13z
m-902 -31 c0 -4 -9 -9 -20 -12 -23 -6 -24 -3 -9 25 9 17 13 18 20 7 5 -8 9
-17 9 -20z m864 5 c9 -22 8 -23 -14 -17 -21 5 -25 15 -13 26 11 11 20 8 27 -9z
m-807 -61 c4 -10 -26 -27 -34 -20 -2 2 -1 12 3 21 7 18 25 17 31 -1z m747 1
c8 -20 8 -24 -1 -24 -17 0 -35 19 -29 29 10 16 23 14 30 -5z m-737 -58 c-46
-40 -57 -64 -57 -121 0 -28 -4 -44 -10 -40 -11 7 -12 83 -1 128 4 19 19 36 46
51 54 31 66 21 22 -18z m764 -27 c11 -39 10 -137 -1 -119 -5 8 -10 28 -10 43
0 43 -26 91 -60 111 -46 27 -26 37 22 12 26 -13 45 -32 49 -47z m-690 27 c15
9 10 -66 -7 -94 -14 -24 -83 -82 -98 -82 -10 0 -7 75 5 109 11 33 81 89 87 71
2 -6 8 -8 13 -4z m633 -35 c22 -24 37 -141 18 -141 -5 0 -31 19 -57 43 -41 36
-48 48 -52 91 -4 35 -3 47 6 42 6 -4 11 -2 11 4 0 14 49 -12 74 -39z m-584
-34 c0 -52 -1 -55 -44 -85 -40 -29 -96 -57 -96 -48 0 2 18 15 40 30 49 33 80
80 80 124 0 17 5 32 10 32 6 0 10 -24 10 -53z m470 22 c0 -45 28 -87 85 -125
57 -39 54 -44 -8 -13 -74 37 -97 66 -97 121 0 26 5 48 10 48 6 0 10 -14 10
-31z m-422 -6 c-5 -25 -28 -28 -28 -4 0 12 6 21 16 21 9 0 14 -7 12 -17z m382
-3 c0 -11 -4 -20 -10 -20 -5 0 -10 2 -10 4 0 2 -3 11 -6 20 -4 11 -1 16 10 16
9 0 16 -8 16 -20z m-290 -9 c0 -5 -7 -14 -15 -21 -13 -10 -15 -9 -15 9 0 12 6
21 15 21 8 0 15 -4 15 -9z m210 5 c0 -2 -3 -12 -6 -20 -5 -13 -9 -14 -20 -5
-16 13 -9 29 12 29 8 0 14 -2 14 -4z m-181 -46 c-24 -46 -21 -82 11 -145 30
-59 16 -54 -19 6 -43 76 -46 99 -19 142 32 51 54 48 27 -3z m96 -12 c17 -43
12 -75 -23 -142 l-15 -30 -23 45 c-27 52 -30 110 -8 149 22 37 48 29 69 -22z
m43 17 c28 -44 28 -60 -3 -122 -36 -71 -62 -90 -30 -22 28 61 31 102 10 139
-29 52 -10 56 23 5z"/>
<path d="M1017 1737 c-4 -15 -5 -32 -2 -37 4 -6 1 -10 -4 -10 -12 0 -15 -33
-4 -44 4 -4 8 -13 8 -19 0 -25 20 -17 29 11 5 19 3 46 -6 78 -14 47 -14 48
-21 21z"/>
<path d="M658 1635 c2 -14 8 -25 13 -25 5 0 9 -10 9 -22 0 -24 43 -72 53 -62
14 14 -8 71 -39 102 -40 39 -43 39 -36 7z"/>
<path d="M1370 1642 c-8 -9 -14 -20 -13 -24 2 -4 -6 -9 -16 -13 -18 -5 -35
-60 -24 -78 6 -10 53 36 57 55 2 7 8 26 14 41 7 16 12 30 12 33 0 9 -16 2 -30
-14z"/>
<path d="M843 1501 c-150 -71 -215 -135 -292 -289 -31 -62 -32 -67 -32 -192
l0 -128 40 -79 c80 -157 107 -184 265 -264 l78 -40 123 0 123 0 78 40 c158 80
185 107 266 266 l41 80 0 125 c0 121 -1 127 -33 190 -81 162 -129 211 -287
289 -59 30 -68 31 -185 31 -115 0 -127 -2 -185 -29z m252 -18 c53 25 56 13 4
-13 l-43 -22 -17 21 c-17 21 -18 21 -24 1 -8 -26 -14 -25 -66 5 -51 29 -47 33
7 8 36 -18 37 -17 53 4 l16 22 17 -22 c16 -21 17 -21 53 -4z m-227 -33 c-26
-41 -34 -48 -49 -40 -26 14 -29 13 -29 -15 0 -24 -3 -25 -52 -24 l-53 1 48 10
c40 9 47 14 47 34 0 27 3 28 30 14 15 -8 24 -3 50 30 43 54 46 50 8 -10z m372
-20 c23 15 30 12 30 -14 0 -21 6 -25 50 -31 70 -10 70 -21 -1 -17 -55 4 -59 6
-59 28 0 26 -3 28 -28 15 -14 -7 -24 2 -50 43 l-33 51 38 -42 c29 -32 42 -40
53 -33z m-286 9 c15 -12 25 -24 22 -27 -3 -2 -11 0 -18 5 -32 25 -48 22 -65
-10 -9 -18 -18 -27 -20 -20 -6 17 25 73 41 73 7 0 25 -10 40 -21z m210 -4 c9
-13 16 -32 16 -42 0 -12 -6 -8 -20 15 -20 32 -21 32 -50 17 -43 -22 -49 -18
-15 10 38 31 49 31 69 0z m-84 -88 c16 -28 31 -44 35 -38 9 16 106 64 113 56
3 -3 6 -36 6 -73 l1 -67 55 3 c78 4 87 -5 62 -60 -11 -25 -25 -49 -31 -52 -17
-11 -13 -24 8 -31 10 -3 38 -19 61 -36 l42 -31 -48 -34 c-26 -19 -53 -34 -61
-34 -16 0 -17 -16 -2 -26 13 -7 48 -82 49 -101 0 -9 -20 -13 -67 -13 l-68 0
-1 -65 c0 -36 -3 -68 -6 -71 -8 -7 -78 23 -101 44 -19 16 -20 16 -31 -2 -6
-10 -24 -38 -40 -63 l-29 -44 -33 47 c-19 26 -34 54 -34 62 0 7 -3 12 -8 10
-4 -2 -33 -16 -65 -32 -32 -16 -60 -26 -63 -23 -4 3 -7 35 -8 71 l-1 66 -67 0
c-38 0 -68 4 -68 10 0 15 22 62 44 94 12 18 16 31 9 33 -24 8 -103 63 -103 72
0 9 79 66 103 74 8 3 7 10 -5 23 -9 10 -23 37 -32 58 -21 50 -11 58 65 54 l55
-3 1 68 c1 38 3 70 6 73 7 7 81 -27 104 -48 l22 -21 11 29 c6 16 23 44 37 62
30 39 40 34 83 -41z m-133 37 c8 -20 -8 -36 -26 -25 -15 10 -8 41 9 41 6 0 13
-7 17 -16z m190 0 c8 -21 -13 -42 -28 -27 -13 13 -5 43 11 43 6 0 13 -7 17
-16z m-460 -36 c-3 -8 -6 -5 -6 6 -1 11 2 17 5 13 3 -3 4 -12 1 -19z m108 -8
c4 -6 -8 -10 -29 -10 -34 0 -36 -2 -36 -35 0 -19 -4 -35 -10 -35 -11 0 -14 73
-3 83 10 11 71 8 78 -3z m565 -35 c0 -25 -4 -45 -10 -45 -5 0 -9 8 -8 18 4 45
-1 52 -38 52 -21 0 -33 4 -29 10 3 6 24 10 46 10 l39 0 0 -45z m66 -35 c23 0
25 -3 19 -28 -5 -24 0 -33 34 -60 l40 -33 -20 -51 -20 -51 21 -14 20 -14 -20
-17 -21 -17 20 -47 20 -47 -40 -35 c-33 -28 -39 -38 -34 -59 6 -21 3 -26 -17
-29 -18 -2 -24 -11 -29 -43 l-6 -40 -2 48 c-1 41 2 50 19 54 14 4 18 11 15 27
-4 17 4 27 40 48 l46 28 -27 51 c-21 41 -23 53 -12 60 7 5 18 9 23 9 6 0 -1 9
-14 19 -24 18 -24 20 -8 45 41 62 40 72 -9 103 -37 23 -44 32 -39 51 4 17 1
22 -15 22 -18 0 -20 6 -18 53 1 50 2 50 5 10 4 -38 7 -43 29 -43z m-746 20 c0
-33 -3 -40 -20 -40 -16 0 -19 -5 -15 -22 5 -19 -3 -28 -39 -51 l-46 -29 26
-51 c25 -49 26 -51 8 -64 -18 -14 -18 -15 -1 -28 18 -13 17 -15 -7 -62 -29
-55 -34 -54 -10 3 15 37 15 39 -5 55 l-21 18 21 15 22 15 -21 50 -21 50 40 32
c35 27 39 35 34 60 -6 26 -4 29 19 29 22 0 26 4 26 30 0 17 2 30 5 30 3 0 5
-18 5 -40z m118 -13 c2 -12 -3 -17 -17 -17 -15 0 -21 6 -21 21 0 25 33 22 38
-4z m520 6 c-5 -26 -38 -29 -38 -4 0 15 6 21 21 21 14 0 19 -5 17 -17z m-648
-113 c0 -5 -3 -10 -7 -10 -5 0 -16 -7 -27 -15 -17 -13 -17 -16 -3 -44 18 -37
6 -41 -17 -6 -22 34 -20 48 12 67 31 20 42 22 42 8z m777 -11 l34 -21 -18 -31
c-10 -17 -24 -32 -32 -35 -11 -4 -10 1 2 19 23 32 21 48 -8 61 -14 6 -25 15
-25 20 0 12 10 10 47 -13z m-750 -35 c8 -21 -13 -42 -28 -27 -13 13 -5 43 11
43 6 0 13 -7 17 -16z m712 2 c8 -10 8 -16 -2 -24 -17 -14 -42 2 -34 22 8 20
21 20 36 2z m-775 -188 c-15 -30 -15 -32 1 -44 10 -7 23 -15 29 -17 6 -2 8 -7
4 -11 -8 -10 -68 21 -68 35 0 18 30 69 41 69 5 0 2 -14 -7 -32z m827 -5 l21
-32 -34 -21 c-36 -22 -48 -25 -48 -12 0 5 11 14 25 20 29 13 31 29 8 61 -9 14
-11 22 -4 20 7 -3 21 -19 32 -36z m-761 -8 c0 -19 -20 -29 -32 -17 -15 15 -2
43 17 36 8 -3 15 -12 15 -19z m705 -18 c-18 -10 -35 -1 -35 18 0 20 23 25 38
7 10 -13 9 -18 -3 -25z m-760 -93 c-3 -16 1 -23 15 -27 16 -4 20 -13 18 -49
l-1 -43 -4 38 c-4 32 -8 37 -29 37 -25 0 -33 23 -12 36 7 5 -4 21 -33 46 l-44
39 48 -28 c38 -23 46 -32 42 -49z m85 -69 c0 -33 2 -35 36 -35 21 0 33 -4 29
-10 -3 -5 -24 -10 -46 -10 l-39 0 0 45 c0 25 5 45 10 45 6 0 10 -16 10 -35z
m68 12 c2 -12 -3 -17 -17 -17 -15 0 -21 6 -21 21 0 25 33 22 38 -4z m520 0 c2
-12 -3 -17 -17 -17 -15 0 -21 6 -21 21 0 25 33 22 38 -4z m42 -22 l0 -45 -39
0 c-22 0 -43 5 -46 10 -4 6 8 10 29 10 37 0 42 7 38 53 -1 9 3 17 8 17 6 0 10
-20 10 -45z m-612 -72 c42 -5 52 -9 52 -24 0 -21 4 -23 28 -10 14 7 24 -1 50
-42 l33 -52 -38 42 c-29 33 -41 41 -53 33 -23 -15 -30 -12 -30 14 0 21 -6 24
-55 31 -42 5 -55 10 -55 23 0 13 2 14 8 4 5 -7 32 -15 60 -19z m209 -7 c-4 -9
-11 -16 -17 -16 -17 0 -24 31 -9 41 18 11 34 -5 26 -25z m193 3 c0 -10 -6 -19
-14 -19 -19 0 -28 14 -20 33 8 21 34 10 34 -14z m240 12 c0 -5 -24 -13 -52
-18 -44 -7 -54 -12 -56 -31 -4 -25 -6 -26 -32 -12 -15 8 -24 1 -54 -37 -45
-58 -47 -51 -2 15 24 37 37 48 47 41 22 -14 29 -11 29 11 0 16 7 20 33 21 25
1 59 8 85 18 1 1 2 -3 2 -8z m-437 -58 c29 19 37 21 37 9 0 -9 -54 -42 -69
-42 -10 0 -41 50 -41 67 0 4 11 -5 24 -22 23 -28 24 -29 49 -12z m221 -7 c-20
-32 -33 -32 -68 -5 -34 27 -27 36 10 13 27 -18 27 -18 48 9 25 34 34 19 10
-17z m-152 -35 c11 -19 12 -19 27 0 16 19 17 19 59 -1 24 -12 42 -24 39 -26
-2 -3 -21 3 -42 13 -37 18 -38 18 -52 -4 l-15 -23 -17 21 c-16 20 -18 20 -55
5 -54 -22 -58 -20 -11 8 50 30 52 30 67 7z"/>
<path d="M990 1343 c-19 -32 -35 -60 -37 -62 -2 -2 -11 2 -20 11 -10 8 -35 24
-55 36 l-37 21 -7 -35 c-3 -19 -4 -52 0 -72 l5 -37 -70 3 -70 4 25 -50 c14
-28 30 -53 36 -57 18 -11 11 -21 -22 -33 -18 -6 -46 -22 -61 -34 l-28 -23 58
-30 c32 -17 60 -31 62 -32 2 -2 -3 -11 -11 -20 -9 -10 -25 -37 -37 -60 l-21
-43 37 -1 c21 -1 52 -1 70 0 l32 2 -5 -48 c-3 -26 -2 -58 3 -70 l8 -23 56 34
55 33 33 -60 c18 -32 37 -55 41 -51 5 5 22 32 37 61 l29 52 54 -35 c30 -18 59
-34 64 -34 4 0 7 31 4 69 l-4 69 64 0 c35 0 66 3 68 5 5 5 -32 73 -53 98 -12
15 -9 19 29 38 49 24 84 49 77 55 -2 2 -29 18 -61 35 l-56 32 34 50 c19 28 34
55 34 60 0 5 -30 9 -67 9 l-68 0 3 65 c3 44 0 65 -8 65 -15 0 -71 -29 -93 -48
-9 -8 -19 -13 -20 -11 -2 2 -18 30 -36 62 -18 31 -33 57 -35 57 -1 0 -17 -26
-36 -57z m70 -59 c7 -20 9 -51 6 -70 -6 -31 -10 -34 -40 -34 -31 0 -34 3 -40
35 -9 48 27 133 48 115 8 -6 20 -27 26 -46z m-155 -4 c29 -18 65 -72 65 -98 0
-5 -11 -17 -24 -25 -22 -15 -25 -14 -44 6 -26 27 -42 69 -42 108 0 34 3 35 45
9z m285 -17 c0 -34 -42 -123 -58 -123 -4 0 -18 9 -31 19 -23 17 -23 21 -11 50
12 29 75 91 92 91 5 0 8 -16 8 -37z m-324 -105 c16 -12 31 -23 33 -25 4 -3
-20 -63 -26 -63 -33 0 -123 73 -123 101 0 19 87 9 116 -13z m434 16 c0 -22
-42 -68 -78 -85 -24 -12 -44 -20 -45 -18 -1 2 -8 15 -16 28 -13 23 -11 27 18
53 24 22 41 28 76 28 25 0 45 -3 45 -6z m-189 -60 c57 -55 56 -134 -2 -190
-26 -25 -38 -29 -84 -29 -48 0 -58 4 -87 33 -30 29 -33 38 -33 91 0 49 4 64
25 86 34 37 57 45 108 41 31 -3 52 -12 73 -32z m-253 -63 c8 -5 12 -21 10 -37
-3 -27 -6 -29 -50 -32 -46 -3 -108 18 -108 37 0 27 116 52 148 32z m468 -16
l28 -18 -38 -19 c-25 -13 -53 -18 -84 -16 -45 3 -47 4 -48 33 0 17 4 34 10 38
18 13 103 1 132 -18z m-446 -79 c0 -7 7 -19 15 -26 12 -10 13 -15 3 -28 -31
-37 -148 -69 -148 -40 0 21 52 80 84 94 40 17 46 17 46 0z m390 -42 c38 -43
39 -64 3 -64 -32 0 -113 37 -120 55 -2 8 3 25 12 38 14 23 20 24 45 15 16 -5
43 -25 60 -44z m-300 -56 c0 -26 -36 -80 -65 -98 -42 -26 -45 -25 -45 9 0 39
16 81 42 108 19 20 22 21 44 6 13 -8 24 -20 24 -25z m206 -20 c14 -27 20 -98
8 -98 -23 0 -74 46 -89 80 -18 40 -18 40 6 59 22 18 25 18 43 3 10 -9 24 -29
32 -44z m-110 -12 c7 -38 -9 -98 -30 -115 -26 -22 -61 61 -50 118 6 27 11 31
40 31 30 0 34 -3 40 -34z"/>
<path d="M1012 1239 c2 -6 8 -10 13 -10 5 0 11 4 13 10 2 6 -4 11 -13 11 -9 0
-15 -5 -13 -11z"/>
<path d="M910 1205 c0 -8 5 -15 10 -15 6 0 10 7 10 15 0 8 -4 15 -10 15 -5 0
-10 -7 -10 -15z"/>
<path d="M1122 1209 c2 -6 8 -10 13 -10 5 0 11 4 13 10 2 6 -4 11 -13 11 -9 0
-15 -5 -13 -11z"/>
<path d="M820 1130 c0 -5 7 -10 15 -10 8 0 15 5 15 10 0 6 -7 10 -15 10 -8 0
-15 -4 -15 -10z"/>
<path d="M1200 1130 c0 -5 7 -10 15 -10 8 0 15 5 15 10 0 6 -7 10 -15 10 -8 0
-15 -4 -15 -10z"/>
<path d="M994 1110 c-31 -12 -64 -59 -64 -90 0 -33 33 -78 68 -91 32 -12 87 5
107 34 33 47 8 127 -46 146 -37 13 -37 13 -65 1z m60 -31 c14 -7 27 -18 30
-26 4 -9 -3 -7 -20 6 -34 27 -50 26 -79 -4 -14 -13 -25 -20 -25 -15 0 10 49
50 61 50 4 0 19 -5 33 -11z m-69 -99 l20 -25 -22 19 c-13 11 -23 24 -23 29 0
6 1 8 3 6 1 -2 11 -15 22 -29z m98 5 c-3 -9 -8 -14 -10 -11 -3 3 -2 9 2 15 9
16 15 13 8 -4z"/>
<path d="M795 1020 c-3 -5 1 -10 9 -10 9 0 16 5 16 10 0 6 -4 10 -9 10 -6 0
-13 -4 -16 -10z"/>
<path d="M1230 1020 c0 -5 7 -10 15 -10 8 0 15 5 15 10 0 6 -7 10 -15 10 -8 0
-15 -4 -15 -10z"/>
<path d="M825 910 c-3 -5 1 -10 9 -10 9 0 16 5 16 10 0 6 -4 10 -9 10 -6 0
-13 -4 -16 -10z"/>
<path d="M1200 910 c0 -5 7 -10 15 -10 8 0 15 5 15 10 0 6 -7 10 -15 10 -8 0
-15 -4 -15 -10z"/>
<path d="M910 824 c0 -8 5 -12 10 -9 6 3 10 10 10 16 0 5 -4 9 -10 9 -5 0 -10
-7 -10 -16z"/>
<path d="M1122 829 c2 -6 8 -10 13 -10 5 0 11 4 13 10 2 6 -4 11 -13 11 -9 0
-15 -5 -13 -11z"/>
<path d="M1016 813 c-11 -11 -6 -23 9 -23 8 0 15 4 15 9 0 13 -16 22 -24 14z"/>
<path d="M390 1384 c0 -8 27 -34 36 -34 4 0 12 -7 18 -16 6 -8 18 -16 26 -17
8 -2 21 -6 28 -11 8 -5 18 -4 23 1 13 13 -34 63 -59 63 -10 0 -22 3 -26 7 -8
9 -46 15 -46 7z"/>
<path d="M1614 1378 c-3 -5 -13 -8 -23 -8 -26 0 -68 -47 -54 -61 8 -8 13 -8
17 0 4 6 16 11 27 11 11 0 22 7 25 15 4 8 12 15 19 15 6 0 20 9 30 20 18 20
18 20 -9 18 -15 -1 -30 -6 -32 -10z"/>
<path d="M366 1043 c-4 -4 -21 -8 -37 -9 -52 -3 -54 -24 -2 -29 15 -1 36 -5
46 -10 11 -4 23 -3 29 3 6 6 17 8 24 5 8 -3 14 1 14 10 0 8 -8 17 -17 20 -10
2 -25 8 -34 11 -8 4 -18 3 -23 -1z"/>
<path d="M1637 1037 c-25 -10 -32 -31 -11 -33 5 0 17 -4 26 -8 9 -4 23 -4 30
0 7 5 26 9 41 10 52 3 50 25 -2 28 -16 1 -33 5 -37 9 -9 8 -11 8 -47 -6z"/>
<path d="M475 722 c-22 -8 -85 -61 -85 -72 0 -4 11 -5 25 -2 14 2 25 8 25 13
0 5 10 9 23 9 12 0 30 9 40 20 30 36 20 47 -28 32z"/>
<path d="M1530 721 c0 -16 37 -51 54 -51 7 0 26 -7 42 -15 15 -8 30 -13 32
-11 6 6 -22 46 -32 46 -5 0 -14 6 -20 14 -14 18 -76 32 -76 17z"/>
<path d="M702 495 c-12 -12 -22 -32 -22 -44 0 -12 -4 -21 -9 -21 -5 0 -11 -11
-13 -25 -7 -33 1 -32 39 8 31 33 51 91 36 100 -5 3 -19 -5 -31 -18z"/>
<path d="M1317 513 c-11 -19 6 -75 27 -83 11 -5 17 -9 12 -9 -10 -1 23 -41 34
-41 4 0 5 11 2 25 -2 14 -9 25 -14 25 -6 0 -8 7 -4 15 6 16 -48 82 -57 68z"/>
<path d="M1005 393 c-4 -24 -3 -39 4 -41 6 -2 8 -8 5 -13 -9 -15 5 -59 18 -59
6 0 9 2 6 6 -3 3 -2 22 3 42 10 45 1 102 -16 102 -7 0 -16 -17 -20 -37z"/>
<path d="M800 1818 c0 -8 7 -23 15 -34 15 -18 15 -18 13 10 -3 29 -28 50 -28
24z"/>
<path d="M1224 1805 c-4 -14 -3 -29 0 -33 9 -8 26 18 26 41 0 26 -19 20 -26
-8z"/>
<path d="M451 1584 c13 -14 25 -20 27 -14 5 15 -17 40 -36 40 -12 0 -10 -6 9
-26z"/>
<path d="M1591 1601 c-12 -12 -21 -27 -21 -33 0 -7 12 0 27 14 15 15 24 30 21
34 -4 3 -16 -4 -27 -15z"/>
<path d="M225 810 c-3 -6 5 -10 19 -10 14 0 28 5 31 10 3 6 -5 10 -19 10 -14
0 -28 -4 -31 -10z"/>
<path d="M1775 810 c3 -5 17 -10 31 -10 14 0 22 4 19 10 -3 6 -17 10 -31 10
-14 0 -22 -4 -19 -10z"/>
<path d="M446 448 c-9 -12 -13 -24 -11 -27 6 -5 45 29 45 41 0 15 -19 8 -34
-14z"/>
<path d="M1570 461 c0 -12 42 -42 49 -36 5 6 -29 45 -41 45 -4 0 -8 -4 -8 -9z"/>
<path d="M810 247 c-14 -29 -7 -48 11 -30 6 6 9 21 7 34 l-4 24 -14 -28z"/>
<path d="M1220 257 c0 -23 11 -47 21 -47 15 0 10 37 -6 50 -12 10 -15 10 -15
-3z"/>
<path d="M900 1910 c0 -5 5 -10 10 -10 6 0 10 5 10 10 0 6 -4 10 -10 10 -5 0
-10 -4 -10 -10z"/>
<path d="M1130 1910 c0 -5 5 -10 10 -10 6 0 10 5 10 10 0 6 -4 10 -10 10 -5 0
-10 -4 -10 -10z"/>
<path d="M675 1860 c-8 -13 -1 -24 14 -19 6 3 7 10 2 18 -6 10 -10 10 -16 1z"/>
<path d="M1360 1856 c0 -9 5 -16 10 -16 6 0 10 4 10 9 0 6 -4 13 -10 16 -5 3
-10 -1 -10 -9z"/>
<path d="M476 1741 c-4 -5 -2 -12 3 -15 5 -4 12 -2 15 3 4 5 2 12 -3 15 -5 4
-12 2 -15 -3z"/>
<path d="M1560 1735 c0 -9 5 -15 11 -13 6 2 11 8 11 13 0 5 -5 11 -11 13 -6 2
-11 -4 -11 -13z"/>
<path d="M306 1571 c-4 -5 -2 -12 3 -15 5 -4 12 -2 15 3 4 5 2 12 -3 15 -5 4
-12 2 -15 -3z"/>
<path d="M1725 1571 c-6 -11 9 -23 19 -14 9 9 7 23 -3 23 -6 0 -12 -4 -16 -9z"/>
<path d="M190 1365 c0 -9 5 -15 11 -13 6 2 11 8 11 13 0 5 -5 11 -11 13 -6 2
-11 -4 -11 -13z"/>
<path d="M1840 1365 c0 -9 5 -15 11 -13 6 2 11 8 11 13 0 5 -5 11 -11 13 -6 2
-11 -4 -11 -13z"/>
<path d="M130 1135 c0 -8 5 -15 10 -15 6 0 10 7 10 15 0 8 -4 15 -10 15 -5 0
-10 -7 -10 -15z"/>
<path d="M1900 1135 c0 -9 5 -15 11 -13 6 2 11 8 11 13 0 5 -5 11 -11 13 -6 2
-11 -4 -11 -13z"/>
<path d="M130 905 c0 -8 5 -15 10 -15 6 0 10 7 10 15 0 8 -4 15 -10 15 -5 0
-10 -7 -10 -15z"/>
<path d="M1900 905 c0 -9 5 -15 11 -13 6 2 11 8 11 13 0 5 -5 11 -11 13 -6 2
-11 -4 -11 -13z"/>
<path d="M196 681 c-4 -7 -5 -15 -2 -18 9 -9 19 4 14 18 -4 11 -6 11 -12 0z"/>
<path d="M1840 675 c0 -9 5 -15 11 -13 6 2 11 8 11 13 0 5 -5 11 -11 13 -6 2
-11 -4 -11 -13z"/>
<path d="M306 482 c-3 -6 -1 -14 5 -17 15 -10 25 3 12 16 -7 7 -13 7 -17 1z"/>
<path d="M1726 482 c-3 -6 -1 -14 5 -17 15 -10 25 3 12 16 -7 7 -13 7 -17 1z"/>
<path d="M475 309 c-10 -15 3 -25 16 -12 7 7 7 13 1 17 -6 3 -14 1 -17 -5z"/>
<path d="M1560 305 c0 -8 5 -15 10 -15 6 0 10 7 10 15 0 8 -4 15 -10 15 -5 0
-10 -7 -10 -15z"/>
<path d="M672 191 c2 -7 7 -12 11 -12 12 1 9 15 -3 20 -7 2 -11 -2 -8 -8z"/>
<path d="M1360 184 c0 -8 5 -12 10 -9 6 3 10 10 10 16 0 5 -4 9 -10 9 -5 0
-10 -7 -10 -16z"/>
<path d="M900 125 c0 -8 5 -15 10 -15 6 0 10 7 10 15 0 8 -4 15 -10 15 -5 0
-10 -7 -10 -15z"/>
<path d="M1130 125 c0 -8 5 -15 10 -15 6 0 10 7 10 15 0 8 -4 15 -10 15 -5 0
-10 -7 -10 -15z"/>
</g>
</svg>
